<svg width="21" height="153" viewBox="0 0 21 153" fill="none" xmlns="http://www.w3.org/2000/svg">
<g id="Component 6">
<g id="Vector" filter="url(#filter0_d_25_256)">
<path d="M10.5069 16.9999C10.2258 17.0033 9.95118 16.9156 9.72411 16.7501C9.49705 16.5845 9.32975 16.35 9.24727 16.0815L8.19714 12.8013L4.90298 11.7003C4.63711 11.6115 4.40636 11.4406 4.24407 11.2123C4.08178 10.984 3.99635 10.71 4.00012 10.43C4.00388 10.15 4.09665 9.87843 4.26502 9.65453C4.43339 9.43063 4.66865 9.26599 4.93681 9.18439L8.20495 8.18738L9.30582 4.90259C9.38768 4.63278 9.55699 4.3978 9.78713 4.23462C10.0173 4.07143 10.2952 3.98929 10.5772 4.00112C10.8583 4.0015 11.1318 4.09282 11.3566 4.26142C11.5814 4.43002 11.7456 4.66682 11.8244 4.93638L12.8212 8.19583L16.0939 9.24223C16.3579 9.33068 16.5874 9.49973 16.7499 9.72551C16.9125 9.95129 17 10.2224 17 10.5005C17 10.7786 16.9125 11.0497 16.7499 11.2755C16.5874 11.5013 16.3579 11.6704 16.0939 11.7588L12.8154 12.8065L11.7665 16.0815C11.684 16.35 11.5167 16.5845 11.2897 16.7501C11.0626 16.9156 10.788 17.0033 10.5069 16.9999Z" fill="#0A65FE"/>
</g>
<g id="Vector_2" filter="url(#filter1_d_25_256)">
<path d="M10.5069 84.9999C10.2258 85.0033 9.95118 84.9156 9.72411 84.7501C9.49705 84.5845 9.32975 84.35 9.24727 84.0815L8.19714 80.8013L4.90298 79.7003C4.63711 79.6115 4.40636 79.4406 4.24407 79.2123C4.08178 78.984 3.99635 78.71 4.00012 78.43C4.00388 78.15 4.09665 77.8784 4.26502 77.6545C4.43339 77.4306 4.66865 77.266 4.93681 77.1844L8.20495 76.1874L9.30582 72.9026C9.38768 72.6328 9.55699 72.3978 9.78713 72.2346C10.0173 72.0714 10.2952 71.9893 10.5772 72.0011C10.8583 72.0015 11.1318 72.0928 11.3566 72.2614C11.5814 72.43 11.7456 72.6668 11.8244 72.9364L12.8212 76.1958L16.0939 77.2422C16.3579 77.3307 16.5874 77.4997 16.7499 77.7255C16.9125 77.9513 17 78.2224 17 78.5005C17 78.7786 16.9125 79.0497 16.7499 79.2755C16.5874 79.5013 16.3579 79.6704 16.0939 79.7588L12.8154 80.8065L11.7665 84.0815C11.684 84.35 11.5167 84.5845 11.2897 84.7501C11.0626 84.9156 10.788 85.0033 10.5069 84.9999Z" fill="#0A65FE"/>
</g>
<g id="Vector_3" filter="url(#filter2_d_25_256)">
<path d="M10.5069 50.9999C10.2258 51.0033 9.95118 50.9156 9.72411 50.7501C9.49705 50.5845 9.32975 50.35 9.24727 50.0815L8.19714 46.8013L4.90298 45.7003C4.63711 45.6115 4.40636 45.4406 4.24407 45.2123C4.08178 44.984 3.99635 44.71 4.00012 44.43C4.00388 44.15 4.09665 43.8784 4.26502 43.6545C4.43339 43.4306 4.66865 43.266 4.93681 43.1844L8.20495 42.1874L9.30582 38.9026C9.38768 38.6328 9.55699 38.3978 9.78713 38.2346C10.0173 38.0714 10.2952 37.9893 10.5772 38.0011C10.8583 38.0015 11.1318 38.0928 11.3566 38.2614C11.5814 38.43 11.7456 38.6668 11.8244 38.9364L12.8212 42.1958L16.0939 43.2422C16.3579 43.3307 16.5874 43.4997 16.7499 43.7255C16.9125 43.9513 17 44.2224 17 44.5005C17 44.7786 16.9125 45.0497 16.7499 45.2755C16.5874 45.5013 16.3579 45.6704 16.0939 45.7588L12.8154 46.8065L11.7665 50.0815C11.684 50.35 11.5167 50.5845 11.2897 50.7501C11.0626 50.9156 10.788 51.0033 10.5069 50.9999Z" fill="#0A65FE"/>
</g>
<g id="Vector_4" filter="url(#filter3_d_25_256)">
<path d="M10.5069 119C10.2258 119.003 9.95118 118.916 9.72411 118.75C9.49705 118.585 9.32975 118.35 9.24727 118.082L8.19714 114.801L4.90298 113.7C4.63711 113.612 4.40636 113.441 4.24407 113.212C4.08178 112.984 3.99635 112.71 4.00012 112.43C4.00388 112.15 4.09665 111.878 4.26502 111.655C4.43339 111.431 4.66865 111.266 4.93681 111.184L8.20495 110.187L9.30582 106.903C9.38768 106.633 9.55699 106.398 9.78713 106.235C10.0173 106.071 10.2952 105.989 10.5772 106.001C10.8583 106.002 11.1318 106.093 11.3566 106.261C11.5814 106.43 11.7456 106.667 11.8244 106.936L12.8212 110.196L16.0939 111.242C16.3579 111.331 16.5874 111.5 16.7499 111.726C16.9125 111.951 17 112.222 17 112.501C17 112.779 16.9125 113.05 16.7499 113.276C16.5874 113.501 16.3579 113.67 16.0939 113.759L12.8154 114.806L11.7665 118.082C11.684 118.35 11.5167 118.585 11.2897 118.75C11.0626 118.916 10.788 119.003 10.5069 119Z" fill="#0A65FE"/>
</g>
</g>
<defs>
<filter id="filter0_d_25_256" x="0" y="0" width="21" height="21" filterUnits="userSpaceOnUse" color-interpolation-filters="sRGB">
<feFlood flood-opacity="0" result="BackgroundImageFix"/>
<feColorMatrix in="SourceAlpha" type="matrix" values="0 0 0 0 0 0 0 0 0 0 0 0 0 0 0 0 0 0 127 0" result="hardAlpha"/>
<feOffset/>
<feGaussianBlur stdDeviation="2"/>
<feComposite in2="hardAlpha" operator="out"/>
<feColorMatrix type="matrix" values="0 0 0 0 0.0392157 0 0 0 0 0.396078 0 0 0 0 0.996078 0 0 0 1 0"/>
<feBlend mode="normal" in2="BackgroundImageFix" result="effect1_dropShadow_25_256"/>
<feBlend mode="normal" in="SourceGraphic" in2="effect1_dropShadow_25_256" result="shape"/>
</filter>
<filter id="filter1_d_25_256" x="0" y="68" width="21" height="21" filterUnits="userSpaceOnUse" color-interpolation-filters="sRGB">
<feFlood flood-opacity="0" result="BackgroundImageFix"/>
<feColorMatrix in="SourceAlpha" type="matrix" values="0 0 0 0 0 0 0 0 0 0 0 0 0 0 0 0 0 0 127 0" result="hardAlpha"/>
<feOffset/>
<feGaussianBlur stdDeviation="2"/>
<feComposite in2="hardAlpha" operator="out"/>
<feColorMatrix type="matrix" values="0 0 0 0 0.0392157 0 0 0 0 0.396078 0 0 0 0 0.996078 0 0 0 1 0"/>
<feBlend mode="normal" in2="BackgroundImageFix" result="effect1_dropShadow_25_256"/>
<feBlend mode="normal" in="SourceGraphic" in2="effect1_dropShadow_25_256" result="shape"/>
</filter>
<filter id="filter2_d_25_256" x="0" y="34" width="21" height="21" filterUnits="userSpaceOnUse" color-interpolation-filters="sRGB">
<feFlood flood-opacity="0" result="BackgroundImageFix"/>
<feColorMatrix in="SourceAlpha" type="matrix" values="0 0 0 0 0 0 0 0 0 0 0 0 0 0 0 0 0 0 127 0" result="hardAlpha"/>
<feOffset/>
<feGaussianBlur stdDeviation="2"/>
<feComposite in2="hardAlpha" operator="out"/>
<feColorMatrix type="matrix" values="0 0 0 0 0.0392157 0 0 0 0 0.396078 0 0 0 0 0.996078 0 0 0 1 0"/>
<feBlend mode="normal" in2="BackgroundImageFix" result="effect1_dropShadow_25_256"/>
<feBlend mode="normal" in="SourceGraphic" in2="effect1_dropShadow_25_256" result="shape"/>
</filter>
<filter id="filter3_d_25_256" x="0" y="102" width="21" height="21" filterUnits="userSpaceOnUse" color-interpolation-filters="sRGB">
<feFlood flood-opacity="0" result="BackgroundImageFix"/>
<feColorMatrix in="SourceAlpha" type="matrix" values="0 0 0 0 0 0 0 0 0 0 0 0 0 0 0 0 0 0 127 0" result="hardAlpha"/>
<feOffset/>
<feGaussianBlur stdDeviation="2"/>
<feComposite in2="hardAlpha" operator="out"/>
<feColorMatrix type="matrix" values="0 0 0 0 0.0392157 0 0 0 0 0.396078 0 0 0 0 0.996078 0 0 0 1 0"/>
<feBlend mode="normal" in2="BackgroundImageFix" result="effect1_dropShadow_25_256"/>
<feBlend mode="normal" in="SourceGraphic" in2="effect1_dropShadow_25_256" result="shape"/>
</filter>
</defs>
</svg>
