<svg width="73" height="36" viewBox="0 0 73 36" fill="none" xmlns="http://www.w3.org/2000/svg">
<g id="Ellipse 19">
<mask id="path-1-inside-1_25_315" fill="white">
<path d="M61.8729 35.1406C64.4778 36.057 67.343 34.691 68.1508 32.0503C70.3387 24.898 71.8569 17.5577 72.6859 10.1243C72.992 7.37988 70.9039 4.98927 68.1491 4.79714L6.73446 0.513855C3.97973 0.32173 1.61672 2.40663 1.14565 5.12758C0.963905 6.17733 0.748057 7.22088 0.498445 8.25659C-0.148548 10.9412 1.19348 13.7924 3.79839 14.7089L61.8729 35.1406Z"/>
</mask>
<path d="M61.8729 35.1406C64.4778 36.057 67.343 34.691 68.1508 32.0503C70.3387 24.898 71.8569 17.5577 72.6859 10.1243C72.992 7.37988 70.9039 4.98927 68.1491 4.79714L6.73446 0.513855C3.97973 0.32173 1.61672 2.40663 1.14565 5.12758C0.963905 6.17733 0.748057 7.22088 0.498445 8.25659C-0.148548 10.9412 1.19348 13.7924 3.79839 14.7089L61.8729 35.1406Z" fill="#5695FF" stroke="white" stroke-opacity="0.13" stroke-width="4" mask="url(#path-1-inside-1_25_315)"/>
</g>
</svg>
