<svg width="70" height="53" viewBox="0 0 70 53" fill="none" xmlns="http://www.w3.org/2000/svg">
<g id="Ellipse 21">
<mask id="path-1-inside-1_25_316" fill="white">
<path d="M50.6815 51.2319C52.8629 52.9252 56.013 52.5353 57.6145 50.2857C61.952 44.1924 65.7138 37.709 68.851 30.9193C70.0093 28.4125 68.7844 25.4842 66.2318 24.4308L9.32388 0.944701C6.7713 -0.108757 3.87022 1.12183 2.56281 3.55414C2.05841 4.49254 1.52361 5.41427 0.959267 6.31788C-0.503521 8.66004 -0.132094 11.7894 2.04929 13.4826L50.6815 51.2319Z"/>
</mask>
<path d="M50.6815 51.2319C52.8629 52.9252 56.013 52.5353 57.6145 50.2857C61.952 44.1924 65.7138 37.709 68.851 30.9193C70.0093 28.4125 68.7844 25.4842 66.2318 24.4308L9.32388 0.944701C6.7713 -0.108757 3.87022 1.12183 2.56281 3.55414C2.05841 4.49254 1.52361 5.41427 0.959267 6.31788C-0.503521 8.66004 -0.132094 11.7894 2.04929 13.4826L50.6815 51.2319Z" fill="#7E7F80" stroke="white" stroke-opacity="0.13" stroke-width="4" mask="url(#path-1-inside-1_25_316)"/>
</g>
</svg>
