<svg width="66" height="65" viewBox="0 0 66 65" fill="none" xmlns="http://www.w3.org/2000/svg">
<g id="Group 2">
<g id="Vector" filter="url(#filter0_d_25_90)">
<path d="M24.5365 27.6532C26.8966 25.3614 29.6458 24.0946 32.895 24.0946C36.1441 24.0946 38.8934 25.3614 41.2083 27.6122C41.3067 27.5302 41.2698 27.4318 41.2698 27.3498C41.2698 26.3412 41.2698 25.3327 41.2739 24.3241C41.2739 24.1028 41.2124 23.9634 41.0117 23.8445C40.1963 23.3525 39.8358 22.4137 40.0898 21.5199C40.3479 20.6139 41.1551 20.003 42.0893 20.0071C43.0111 20.0071 43.8224 20.618 44.0764 21.4953C44.3428 22.4137 43.9822 23.3443 43.1546 23.8445C42.9661 23.9552 42.8923 24.0782 42.8964 24.2955C42.9046 26.001 42.9005 27.7065 42.8964 29.4161C42.8964 29.617 42.9579 29.7809 43.0603 29.9449C44.4329 32.1588 45.1253 34.5695 45.1827 37.1728C45.2114 38.5258 44.7238 39.6655 43.847 40.6617C42.6342 42.0393 41.0772 42.8879 39.3769 43.5111C37.7462 44.1055 36.0581 44.4253 34.329 44.5401C31.338 44.741 28.4412 44.372 25.6633 43.2159C24.43 42.7034 23.3033 42.0147 22.3322 41.0799C21.0416 39.8336 20.4639 38.3413 20.6154 36.5456C20.7875 34.4711 21.312 32.5032 22.3035 30.6665C22.3281 30.6214 22.3445 30.5722 22.3773 30.5353C22.8485 29.9613 22.9263 29.2972 22.9058 28.5756C22.869 27.1694 22.8894 25.7632 22.8976 24.3528C22.8976 24.111 22.8362 23.9593 22.6149 23.824C21.7422 23.2951 21.4103 22.2661 21.7709 21.3231C22.111 20.4376 23.0697 19.8759 23.9957 20.0235C24.9995 20.1834 25.7616 21.0115 25.778 22.0201C25.7903 22.8195 25.442 23.4468 24.7537 23.8609C24.5898 23.9593 24.5161 24.07 24.5161 24.2668C24.5242 25.3245 24.5161 26.3822 24.5161 27.44C24.5161 27.4892 24.5242 27.5384 24.5365 27.6573V27.6532ZM32.686 39.4154C34.5626 39.4154 36.2302 39.2965 37.8732 38.9234C38.6312 38.7512 39.381 38.5422 40.0406 38.0994C40.4094 37.8534 40.5692 37.5254 40.52 37.0826C40.4708 36.6563 40.4626 36.2258 40.4176 35.7994C40.2701 34.344 39.8767 32.9624 39.2048 31.6627C39.0737 31.4045 38.9385 31.3266 38.6435 31.425C37.1439 31.9292 35.5951 32.2121 34.0176 32.2982C31.6986 32.4294 29.4205 32.1588 27.1998 31.4537C26.7614 31.3143 26.7614 31.3102 26.5442 31.7324C25.6387 33.4707 25.3109 35.3443 25.2536 37.2753C25.2454 37.6156 25.4134 37.8616 25.6797 38.0543C26.1468 38.3946 26.6835 38.5873 27.2285 38.743C29.0763 39.2678 30.9693 39.399 32.6819 39.4113L32.686 39.4154Z" fill="url(#paint0_linear_25_90)"/>
<path d="M41.14 23.6299C41.268 23.7059 41.3722 23.801 41.4396 23.93C41.5059 24.0568 41.5239 24.192 41.5239 24.3241V24.3252C41.5198 25.3331 41.5198 26.3412 41.5198 27.3498C41.5198 27.3549 41.5202 27.3599 41.5217 27.3768C41.5221 27.3811 41.5226 27.3861 41.5231 27.3921C41.5251 27.4155 41.5283 27.4546 41.5254 27.498C41.5185 27.5991 41.4786 27.7123 41.3685 27.8042L41.1955 27.9484L41.0341 27.7914C38.7598 25.5802 36.0712 24.3446 32.895 24.3446C29.7194 24.3446 27.0306 25.5797 24.7107 27.8325L24.5523 27.6693L24.2879 27.683C24.2851 27.6565 24.2823 27.6315 24.2796 27.6078C24.2723 27.5432 24.2661 27.4885 24.2661 27.44C24.2661 27.086 24.267 26.7327 24.2679 26.3798C24.2697 25.6755 24.2715 24.9726 24.2661 24.2687L24.266 24.2668C24.2661 24.1363 24.2908 24.0114 24.3593 23.8979C24.4266 23.7862 24.5226 23.708 24.6248 23.6466C25.237 23.2784 25.5389 22.7342 25.528 22.0241C25.5138 21.145 24.8485 20.4125 23.9564 20.2704L23.9563 20.2704C23.1496 20.1418 22.303 20.635 22.0043 21.4126C21.6857 22.2462 21.9784 23.1459 22.7445 23.6102L22.7453 23.6107C22.8835 23.6952 22.9928 23.7981 23.0623 23.9356C23.1303 24.0701 23.1476 24.2129 23.1476 24.3528V24.3543H23.1476C23.1462 24.6045 23.1443 24.8544 23.1425 25.1039C23.134 26.2635 23.1255 27.4159 23.1557 28.5688C23.1767 29.3092 23.0998 30.0492 22.5705 30.6939L22.567 30.6982C22.566 30.7 22.564 30.7035 22.561 30.7096C22.558 30.7156 22.5554 30.721 22.5518 30.7286C22.5502 30.7319 22.5485 30.7356 22.5464 30.7399C22.5405 30.7522 22.5326 30.7685 22.5233 30.7857C21.5505 32.5879 21.0342 34.5213 20.8646 36.5662L20.8646 36.5666C20.7194 38.2857 21.2681 39.7047 22.5058 40.9C23.4508 41.8096 24.5498 42.4825 25.7592 42.985L25.7593 42.9851C28.4961 44.1241 31.3533 44.4894 34.3123 44.2907L34.3125 44.2907C36.0214 44.1772 37.6856 43.8615 39.2908 43.2764C40.9697 42.6611 42.4843 41.8312 43.6594 40.4965C44.5008 39.5404 44.9599 38.4599 44.9328 37.1783L41.14 23.6299ZM41.14 23.6299C40.4222 23.1963 40.1071 22.3738 40.3302 21.5884C40.558 20.7888 41.2675 20.2535 42.0882 20.2571H42.0893C42.9002 20.2571 43.6133 20.7948 43.8363 21.5648L43.8363 21.5649C44.071 22.374 43.7565 23.1879 43.0265 23.6298C42.9112 23.6977 42.8072 23.7832 42.7368 23.9048C42.6659 24.0276 42.6441 24.1611 42.6464 24.2983C42.6546 26.0007 42.6505 27.7034 42.6464 29.4111L42.6464 29.4155V29.4161C42.6464 29.6753 42.7279 29.8847 42.8483 30.0774L43.0603 29.9449L42.8478 30.0767L41.14 23.6299ZM27.1602 38.9835C29.0019 39.5066 30.8816 39.6436 32.5774 39.6604L32.5824 39.6654H32.686C34.5728 39.6654 36.2607 39.546 37.9285 39.1672L37.9285 39.1672C38.6903 38.9942 39.4791 38.7773 40.1797 38.3072C40.3931 38.1647 40.5597 37.9891 40.6628 37.7721C40.7662 37.5546 40.7972 37.3137 40.7685 37.055L40.7684 37.054C40.7446 36.8479 40.7306 36.6396 40.7167 36.4249L40.7145 36.3899C40.7015 36.1882 40.6881 35.9807 40.6662 35.7736C40.5157 34.2894 40.1142 32.8776 39.4273 31.5487C39.355 31.4066 39.2557 31.258 39.0888 31.1824C38.9168 31.1045 38.735 31.1309 38.5644 31.1878L38.5638 31.188C37.0869 31.6846 35.5605 31.9636 34.004 32.0486L34.0035 32.0486C31.7136 32.1781 29.466 31.911 27.2754 31.2154C27.2692 31.2134 27.2631 31.2114 27.2569 31.2095C27.1603 31.1787 27.0696 31.1499 26.9933 31.1342C26.9106 31.1171 26.8027 31.1056 26.6924 31.1518C26.5828 31.1978 26.5146 31.2825 26.4678 31.3537C26.4224 31.4227 26.3759 31.5131 26.3255 31.6111L26.3225 31.6169C26.3224 31.6171 26.3223 31.6173 26.3222 31.6175C25.3937 33.4002 25.0617 35.3144 25.0037 37.2679L25.0036 37.2693C24.9929 37.7147 25.221 38.0309 25.5328 38.2566C26.0361 38.6231 26.607 38.8254 27.1597 38.9834L27.1602 38.9835Z" stroke="white" stroke-opacity="0.17" stroke-width="0.5"/>
</g>
<path id="Vector_2" d="M28.9478 34.9308C29.6577 34.9432 30.2691 35.5709 30.2527 36.2683C30.2363 36.9822 29.6044 37.5894 28.9068 37.5648C28.2009 37.5402 27.61 36.9371 27.6182 36.2437C27.6224 35.5339 28.2461 34.9185 28.9478 34.9308Z" fill="url(#paint1_linear_25_90)"/>
<path id="Vector_3" d="M38.1573 36.2521C38.1573 36.958 37.5304 37.5777 36.8297 37.5654C36.1291 37.5571 35.5349 36.958 35.5226 36.2603C35.5103 35.5586 36.125 34.9348 36.8338 34.9307C37.5386 34.9266 38.1573 35.5463 38.1532 36.2521H38.1573Z" fill="url(#paint2_linear_25_90)"/>
</g>
<defs>
<filter id="filter0_d_25_90" x="0.591797" y="0" width="64.5923" height="64.5918" filterUnits="userSpaceOnUse" color-interpolation-filters="sRGB">
<feFlood flood-opacity="0" result="BackgroundImageFix"/>
<feColorMatrix in="SourceAlpha" type="matrix" values="0 0 0 0 0 0 0 0 0 0 0 0 0 0 0 0 0 0 127 0" result="hardAlpha"/>
<feOffset/>
<feGaussianBlur stdDeviation="10"/>
<feComposite in2="hardAlpha" operator="out"/>
<feColorMatrix type="matrix" values="0 0 0 0 0.232131 0 0 0 0 0.492801 0 0 0 0 0.931071 0 0 0 0.62 0"/>
<feBlend mode="normal" in2="BackgroundImageFix" result="effect1_dropShadow_25_90"/>
<feBlend mode="normal" in="SourceGraphic" in2="effect1_dropShadow_25_90" result="shape"/>
</filter>
<linearGradient id="paint0_linear_25_90" x1="32.8878" y1="20" x2="32.8878" y2="44.5921" gradientUnits="userSpaceOnUse">
<stop stop-color="#0A65FE"/>
<stop offset="1" stop-color="#679FFE"/>
</linearGradient>
<linearGradient id="paint1_linear_25_90" x1="28.9356" y1="34.9307" x2="28.9356" y2="37.5655" gradientUnits="userSpaceOnUse">
<stop stop-color="#0A65FE"/>
<stop offset="1" stop-color="#679FFE"/>
</linearGradient>
<linearGradient id="paint2_linear_25_90" x1="36.8399" y1="34.9307" x2="36.8399" y2="37.5655" gradientUnits="userSpaceOnUse">
<stop stop-color="#0A65FE"/>
<stop offset="1" stop-color="#679FFE"/>
</linearGradient>
</defs>
</svg>
