<svg width="12" height="11" viewBox="0 0 12 11" fill="none" xmlns="http://www.w3.org/2000/svg">
<g id="Layer_1" clip-path="url(#clip0_25_184)">
<path id="Vector" d="M2.27791 0.141135C2.8432 0.141135 3.4085 0.141726 3.97374 0.140101C4.02343 0.139954 4.05534 0.15443 4.0859 0.196085C4.49885 0.758434 4.91363 1.31935 5.32798 1.88057C5.69792 2.38162 6.06796 2.88262 6.4379 3.38366C6.47745 3.43719 6.47355 3.43847 6.51849 3.38578C6.79856 3.05717 7.07969 2.72949 7.36006 2.40112C7.61408 2.10362 7.8673 1.80543 8.12128 1.50794C8.35627 1.23265 8.59194 0.957947 8.82708 0.682804C8.97049 0.515001 9.11413 0.347345 9.25623 0.178359C9.27959 0.150589 9.30443 0.140495 9.33927 0.140594C9.64035 0.141578 9.94138 0.141135 10.2425 0.141135C10.4762 0.141135 10.71 0.140988 10.9438 0.14148C10.9605 0.14148 10.9837 0.132519 10.9925 0.150589C11.0017 0.169447 10.9799 0.181806 10.969 0.194706C10.75 0.45168 10.5308 0.708457 10.3114 0.965087C10.1216 1.1872 9.93138 1.40897 9.7416 1.63113C9.55077 1.85452 9.36037 2.07831 9.16959 2.30171C9.00302 2.49674 8.83607 2.69138 8.66951 2.88641C8.49977 3.08513 8.33037 3.28415 8.16068 3.48283C7.99412 3.67786 7.82726 3.8726 7.66065 4.06758C7.54464 4.20333 7.42863 4.33903 7.31296 4.47508C7.27562 4.519 7.27605 4.51959 7.30955 4.56504C7.42724 4.72476 7.54498 4.88444 7.66277 5.04407C8.0761 5.60406 8.48944 6.164 8.90287 6.72393C9.18011 7.09937 9.45744 7.47472 9.73468 7.85016C10.1134 8.36297 10.4919 8.87584 10.8706 9.3886C11.1237 9.73135 11.3769 10.074 11.6298 10.4169C11.641 10.4322 11.6638 10.448 11.6554 10.4663C11.6456 10.4877 11.6182 10.4791 11.5982 10.4791C10.4932 10.4794 9.38829 10.4791 8.28332 10.4801C8.23901 10.4801 8.20888 10.4657 8.18192 10.4294C7.91252 10.0664 7.64201 9.70432 7.37154 9.34217C6.90265 8.71424 6.43352 8.0865 5.96454 7.45866C5.83512 7.28539 5.7059 7.11203 5.57658 6.93871C5.56975 6.9296 5.56312 6.92034 5.55615 6.91138C5.52717 6.87401 5.52357 6.87352 5.49142 6.91059C5.44038 6.96943 5.39011 7.02896 5.33951 7.08824C5.19303 7.25989 5.04665 7.43153 4.90018 7.60313C4.72948 7.80313 4.55878 8.00314 4.38799 8.20309C4.24564 8.36972 4.10316 8.53619 3.96086 8.70281C3.78901 8.904 3.6173 9.10529 3.44545 9.30647C3.27994 9.50023 3.11424 9.69388 2.94869 9.88763C2.80106 10.0604 2.65357 10.2332 2.50599 10.4061C2.50176 10.411 2.49705 10.4156 2.4935 10.421C2.46298 10.4678 2.42088 10.4808 2.36624 10.4806C1.84742 10.4787 1.32855 10.4796 0.809732 10.4791C0.786424 10.4791 0.752304 10.4901 0.742548 10.4682C0.731351 10.4432 0.763405 10.4247 0.779264 10.4061C1.02229 10.1205 1.26584 9.83544 1.50944 9.55045C1.72247 9.3012 1.93594 9.05235 2.14893 8.80306C2.38402 8.52782 2.61854 8.25209 2.85358 7.97685C3.06652 7.7275 3.27999 7.47865 3.49293 7.22936C3.70587 6.98007 3.91838 6.73033 4.13127 6.48094C4.31677 6.26365 4.50246 6.04656 4.6881 5.82947C4.71963 5.79259 4.71972 5.79225 4.69224 5.75542C4.53076 5.53916 4.36939 5.32281 4.20792 5.10651C3.78973 4.54623 3.37154 3.98595 2.9533 3.42571C2.74709 3.14949 2.54093 2.87326 2.33462 2.59713C1.86563 1.9693 1.39655 1.34151 0.927567 0.713627C0.801033 0.54415 0.6745 0.374869 0.548543 0.205145C0.536481 0.188847 0.511636 0.172451 0.520382 0.152066C0.529705 0.130401 0.557674 0.141529 0.577233 0.141529C1.14411 0.141037 1.71099 0.141135 2.27791 0.141135ZM9.61536 9.41081C9.61392 9.38806 9.59931 9.37619 9.58907 9.36231C9.44533 9.16728 9.30116 8.97259 9.15723 8.77775C8.86937 8.38798 8.58161 7.99822 8.2938 7.6084C8.00599 7.21863 7.71822 6.82881 7.43041 6.43899C7.06148 5.93932 6.69255 5.4397 6.32362 4.94003C6.03581 4.55026 5.74799 4.16045 5.46023 3.77068C4.97346 3.11143 4.4867 2.45223 4.00003 1.79293C3.85038 1.59016 3.70087 1.38725 3.55166 1.18415C3.53378 1.15977 3.51658 1.14141 3.48197 1.14156C3.17456 1.14289 2.86714 1.14225 2.55972 1.14254C2.54977 1.14254 2.53675 1.13722 2.53098 1.15254C2.53506 1.16913 2.54717 1.18055 2.55679 1.1934C2.67342 1.34978 2.7902 1.50602 2.90693 1.66235C3.3193 2.21465 3.73168 2.76701 4.1441 3.31931C4.47189 3.75832 4.79974 4.19723 5.12753 4.63623C5.57979 5.24196 6.03206 5.84774 6.48432 6.45342C6.81308 6.8937 7.14193 7.33389 7.47064 7.77423C7.86643 8.30443 8.26247 8.83448 8.65716 9.36556C8.68436 9.40214 8.71324 9.41662 8.75769 9.41637C9.02666 9.41465 9.29569 9.41558 9.56466 9.41539C9.58047 9.41539 9.59666 9.41805 9.61541 9.41081H9.61536Z" fill="white" fill-opacity="0.12"/>
</g>
<defs>
<clipPath id="clip0_25_184">
<rect width="11.1387" height="10.3431" fill="white" transform="translate(0.518555 0.138672)"/>
</clipPath>
</defs>
</svg>
