<svg width="50" height="53" viewBox="0 0 50 53" fill="none" xmlns="http://www.w3.org/2000/svg">
<g id="logo.03eabfe3171233976479149fcc8ccec8 1" clip-path="url(#clip0_25_229)">
<g id="Clip path group">
<mask id="mask0_25_229" style="mask-type:luminance" maskUnits="userSpaceOnUse" x="0" y="0" width="211" height="49">
<g id="clip0_436_4605">
<path id="Vector" d="M210.268 0.296875H0V48.8053H210.268V0.296875Z" fill="white"/>
</g>
</mask>
<g mask="url(#mask0_25_229)">
<g id="Group">
<path id="Vector_2" fill-rule="evenodd" clip-rule="evenodd" d="M47.6201 27.5412C47.6205 26.3986 47.621 25.256 47.621 24.1134L47.6205 24.1109C47.6201 24.1101 47.6201 24.1092 47.6201 24.1083C47.6201 22.9168 47.6196 21.7255 47.6192 20.5341C47.6183 17.554 47.6174 14.5741 47.6223 11.5937C47.6246 10.0514 47.3634 8.56785 46.7696 7.14188C46.2795 5.96658 45.6214 4.90398 44.7772 3.95174C43.9458 3.01508 43.0073 2.20794 41.9018 1.62628C41.2304 1.27368 40.5328 0.945075 39.8113 0.722004C39.0028 0.471349 38.1609 0.26027 37.3213 0.195507C36.3734 0.122672 35.4184 0.129926 34.464 0.137176C34.1769 0.139357 33.8898 0.141538 33.603 0.141538C33.0819 0.141261 32.5607 0.140978 32.0395 0.140694C25.7822 0.137288 19.524 0.133881 13.2669 0.142737C13.0347 0.143177 12.8025 0.141604 12.5704 0.140032C11.5353 0.13302 10.501 0.126014 9.46746 0.297448C8.36201 0.480943 7.30902 0.807154 6.30848 1.28448C5.27812 1.775 4.35869 2.4478 3.52034 3.23215C2.61045 4.08246 1.88181 5.0707 1.29986 6.16205C0.861009 6.98477 0.494902 7.84947 0.344646 8.78254C0.30999 8.998 0.270767 9.21373 0.231515 9.42959C0.115436 10.0679 -0.000886094 10.7077 5.08828e-06 11.3467C0.000918647 12.0495 0.117307 12.7531 0.233366 13.4546C0.268807 13.6688 0.304216 13.8829 0.336298 14.0967C0.463897 14.941 0.806152 15.7169 1.16868 16.4797C1.60157 17.39 2.15609 18.2283 2.84418 18.9611C3.33908 19.4876 3.8626 19.9973 4.42786 20.4458C5.34848 21.1774 6.37049 21.7542 7.49741 22.0937C8.28924 22.3323 9.10018 22.5446 9.91826 22.6537C10.6504 22.7509 11.4065 22.7365 12.1471 22.6897C12.8149 22.6477 13.4934 22.5578 14.1374 22.3779C14.8553 22.1776 15.5506 21.8802 16.2339 21.5755C17.1259 21.1774 17.9428 20.6389 18.6428 19.9589C19.4418 19.1837 20.2296 18.3962 21.0175 17.6087C21.7277 16.8988 22.4379 16.1889 23.1565 15.4879C23.4156 15.2351 23.6654 14.9717 23.9153 14.7082C24.6212 13.964 25.3277 13.219 26.2463 12.7115C26.9296 12.3337 27.6463 12.0459 28.4191 11.9643C29.3672 11.8636 30.3271 11.806 31.2418 12.1622L31.303 12.186C31.8784 12.4096 32.4624 12.6366 32.9829 12.9609C33.9942 13.5906 34.7395 14.4745 35.2785 15.5574C35.7067 16.4173 35.9165 17.3156 35.9654 18.2547C36.0024 18.9827 35.8903 19.6974 35.6661 20.4014C35.3739 21.3177 34.953 22.1632 34.2923 22.8468C33.2793 23.8939 32.2473 24.923 31.2155 25.9519C30.7642 26.402 30.3129 26.852 29.8633 27.3034C29.6871 27.4802 29.5086 27.655 29.3301 27.8298C28.8983 28.2525 28.4664 28.6753 28.0673 29.1276C27.1777 30.1374 26.4622 31.2624 25.9637 32.5276C25.5917 33.4715 25.3269 34.4417 25.2243 35.4407C25.0741 36.9051 25.1552 38.3599 25.5725 39.7918C25.8242 40.6541 26.1366 41.4852 26.5695 42.2648C27.3327 43.638 28.35 44.7977 29.5925 45.7524C30.5669 46.4998 31.6246 47.098 32.8064 47.4412C33.4313 47.6222 34.0669 47.7911 34.7085 47.8836C35.4204 47.9856 36.1491 48.0633 36.8634 48.0228C37.6683 47.977 38.4697 47.8198 39.2616 47.6532C40.4565 47.4012 41.5441 46.8712 42.5601 46.2033C43.4426 45.623 44.2249 44.9214 44.9165 44.1165C45.9348 42.934 46.6696 41.5884 47.1299 40.1037C47.4723 38.9979 47.6295 37.8549 47.6259 36.6868C47.6174 33.6383 47.6187 30.5898 47.6201 27.5412ZM11.1616 48.0489C17.3425 48.1077 22.4918 43.1366 22.4525 36.7466C22.5347 30.6014 17.5512 25.424 11.2272 25.4504C5.03437 25.4767 0.0532049 30.2956 0.00192616 36.6591C-0.0493527 43.0106 4.87817 47.9892 11.1616 48.0489Z" fill="url(#paint0_linear_25_229)"/>
</g>
</g>
</g>
</g>
<defs>
<linearGradient id="paint0_linear_25_229" x1="2.4481" y1="50.234" x2="40.9258" y2="5.81556" gradientUnits="userSpaceOnUse">
<stop stop-color="#FF0080"/>
<stop offset="0.495" stop-color="#FF8C00"/>
<stop offset="1" stop-color="#8FFF00"/>
</linearGradient>
<clipPath id="clip0_25_229">
<rect width="50" height="53" fill="white"/>
</clipPath>
</defs>
</svg>
