<svg width="21" height="21" viewBox="0 0 21 21" fill="none" xmlns="http://www.w3.org/2000/svg">
<g id="users 1" clip-path="url(#clip0_25_252)">
<g id="Vector">
<path d="M6.5625 11.375C5.78374 11.375 5.02246 11.1441 4.37494 10.7114C3.72742 10.2788 3.22274 9.6638 2.92472 8.94432C2.6267 8.22483 2.54873 7.43313 2.70066 6.66933C2.85259 5.90553 3.2276 5.20394 3.77827 4.65327C4.32894 4.1026 5.03053 3.72759 5.79433 3.57566C6.55813 3.42373 7.34983 3.50171 8.06932 3.79973C8.7888 4.09775 9.40375 4.60243 9.83641 5.24994C10.2691 5.89746 10.5 6.65874 10.5 7.4375C10.4988 8.48144 10.0836 9.48228 9.34545 10.2205C8.60728 10.9586 7.60643 11.3738 6.5625 11.375ZM12.25 21H0.875C0.642936 21 0.420376 20.9078 0.256282 20.7437C0.0921873 20.5796 0 20.3571 0 20.125V19.6875C0 17.947 0.691404 16.2778 1.92211 15.0471C3.15282 13.8164 4.82202 13.125 6.5625 13.125C8.30298 13.125 9.97218 13.8164 11.2029 15.0471C12.4336 16.2778 13.125 17.947 13.125 19.6875V20.125C13.125 20.3571 13.0328 20.5796 12.8687 20.7437C12.7046 20.9078 12.4821 21 12.25 21ZM15.3125 7.875C14.5337 7.875 13.7725 7.64407 13.1249 7.21141C12.4774 6.77876 11.9727 6.1638 11.6747 5.44432C11.3767 4.72483 11.2987 3.93313 11.4507 3.16933C11.6026 2.40553 11.9776 1.70394 12.5283 1.15327C13.0789 0.6026 13.7805 0.227589 14.5443 0.0756597C15.3081 -0.0762696 16.0998 0.00170606 16.8193 0.299726C17.5388 0.597746 18.1538 1.10243 18.5864 1.74994C19.0191 2.39746 19.25 3.15874 19.25 3.9375C19.2488 4.98144 18.8336 5.98228 18.0955 6.72046C17.3573 7.45863 16.3564 7.87384 15.3125 7.875ZM14.0691 9.64338C13.2542 9.75272 12.4706 10.0292 11.7674 10.4554C11.0643 10.8817 10.4568 11.4485 9.98288 12.1205C11.9437 13.011 13.4843 14.6249 14.2826 16.625H20.125C20.3571 16.625 20.5796 16.5328 20.7437 16.3687C20.9078 16.2046 21 15.9821 21 15.75V15.7168C20.9991 14.8446 20.8121 13.9826 20.4516 13.1884C20.0911 12.3942 19.5653 11.6861 18.9093 11.1112C18.2533 10.5364 17.4823 10.1081 16.6476 9.85503C15.8129 9.6019 14.9339 9.52975 14.0691 9.64338Z" fill="url(#paint0_linear_25_252)"/>
<path d="M4.65273 10.2957C5.21787 10.6733 5.88227 10.8749 6.56195 10.875C7.47346 10.874 8.34736 10.5114 8.9919 9.8669C9.63643 9.22237 9.99898 8.34849 10 7.43698L4.65273 10.2957ZM4.65273 10.2957C4.08743 9.91796 3.64684 9.3811 3.38666 8.75298M4.65273 10.2957L3.38666 8.75298M3.38666 8.75298C3.12649 8.12486 3.05841 7.43369 3.19105 6.76688M3.38666 8.75298L3.19105 6.76688M3.19105 6.76688C3.32369 6.10007 3.65108 5.48757 4.13182 5.00682M3.19105 6.76688L4.13182 5.00682M4.13182 5.00682C4.61256 4.52608 5.22507 4.19869 5.89188 4.06605M4.13182 5.00682L5.89188 4.06605M5.89188 4.06605C6.55869 3.93342 7.24985 4.00149 7.87797 4.26167M5.89188 4.06605L7.87797 4.26167M7.87797 4.26167C8.50609 4.52184 9.04296 4.96243 9.42068 5.52773M7.87797 4.26167L9.42068 5.52773M9.42068 5.52773C9.79829 6.09287 9.99989 6.75727 10 7.43695L9.42068 5.52773ZM13.4027 6.79568C13.9679 7.17329 14.6323 7.37489 15.3119 7.375C16.2235 7.37399 17.0974 7.01144 17.7419 6.3669C18.3864 5.72237 18.749 4.84849 18.75 3.93698L13.4027 6.79568ZM13.4027 6.79568C12.8374 6.41796 12.3968 5.8811 12.1367 5.25298M13.4027 6.79568L12.1367 5.25298M12.1367 5.25298C11.8765 4.62486 11.8084 3.93369 11.9411 3.26688M12.1367 5.25298L11.9411 3.26688M11.9411 3.26688C12.0737 2.60007 12.4011 1.98757 12.8818 1.50682M11.9411 3.26688L12.8818 1.50682M12.8818 1.50682C13.3626 1.02608 13.9751 0.698689 14.6419 0.566052M12.8818 1.50682L14.6419 0.566052M14.6419 0.566052C15.3087 0.433416 15.9999 0.50149 16.628 0.761666M14.6419 0.566052L16.628 0.761666M16.628 0.761666C17.2561 1.02184 17.793 1.46244 18.1707 2.02773M16.628 0.761666L18.1707 2.02773M18.1707 2.02773C18.5483 2.59287 18.7499 3.25727 18.75 3.93695L18.1707 2.02773ZM0.875 20.5C0.775543 20.5 0.68016 20.4605 0.609835 20.3902C0.539509 20.3198 0.5 20.2245 0.5 20.125V19.6875C0.5 18.0796 1.13873 16.5376 2.27567 15.4007C3.4126 14.2637 4.95463 13.625 6.5625 13.625C8.17037 13.625 9.7124 14.2637 10.8493 15.4007C11.9863 16.5376 12.625 18.0796 12.625 19.6875V20.125C12.625 20.2245 12.5855 20.3198 12.5152 20.3902C12.4448 20.4605 12.3495 20.5 12.25 20.5H0.875ZM12.0266 10.883C12.6707 10.4926 13.3884 10.2393 14.1348 10.139C14.9289 10.0348 15.7361 10.1011 16.5025 10.3335C17.2691 10.566 17.9773 10.9593 18.5798 11.4873C19.1823 12.0152 19.6652 12.6656 19.9963 13.3951C20.3275 14.1245 20.4992 14.9162 20.5 15.7173V15.75C20.5 15.8495 20.4605 15.9448 20.3902 16.0152C20.3198 16.0855 20.2245 16.125 20.125 16.125H14.6143C13.8222 14.3433 12.4642 12.8755 10.7556 11.9471C11.1221 11.5308 11.5504 11.1717 12.0266 10.883Z" stroke="white" stroke-opacity="0.14"/>
</g>
</g>
<defs>
<linearGradient id="paint0_linear_25_252" x1="10.5" y1="0" x2="10.5" y2="21" gradientUnits="userSpaceOnUse">
<stop stop-color="#0A65FE"/>
<stop offset="1" stop-color="#679FFE"/>
</linearGradient>
<clipPath id="clip0_25_252">
<rect width="21" height="21" fill="white"/>
</clipPath>
</defs>
</svg>
