<svg width="27" height="23" viewBox="0 0 27 23" fill="none" xmlns="http://www.w3.org/2000/svg">
<g id="Vector4">
<g id="Vector">
<path d="M26.2378 8.86586L22.3106 2.59285C21.3089 0.993227 19.4535 0 17.4669 0H9.53395C7.54735 0 5.69087 0.994272 4.68915 2.59285L0.763064 8.86586C-0.254355 10.4906 -0.254355 12.5094 0.763064 14.1341L4.68915 20.4072C5.69087 22.0068 7.54623 23 9.53395 23H17.4669C19.4535 23 21.31 22.0057 22.3117 20.4072L26.2378 14.1341C27.2541 12.5094 27.2541 10.4906 26.2378 8.86586ZM20.4541 9.94377L15.4893 14.4865C14.6109 15.2894 13.4802 15.6898 12.3495 15.6898C11.23 15.6898 10.1094 15.2967 9.23444 14.5095L7.10426 12.5565C6.66229 12.1519 6.65668 11.4901 7.0908 11.0781C7.52491 10.6652 8.23385 10.6599 8.67694 11.0656L10.8004 13.0113C11.6731 13.7954 13.0461 13.7912 13.92 12.9925L18.8836 8.45079C19.3245 8.04514 20.0323 8.05246 20.4698 8.46438C20.9039 8.87631 20.8972 9.53916 20.4541 9.94377Z" fill="url(#paint0_linear_27_371)"/>
<path d="M6.74641 10.7157C6.1022 11.3272 6.11084 12.3249 6.76663 12.9253L8.89655 14.878L8.89653 14.878L8.90001 14.8812C9.87235 15.7561 11.1142 16.1898 12.3495 16.1898C13.5971 16.1898 14.8504 15.748 15.8266 14.8555L15.8268 14.8554L20.7912 10.313C20.7913 10.3129 20.7914 10.3129 20.7914 10.3128C21.448 9.71307 21.4592 8.71393 20.814 8.10168L20.8126 8.10036C20.1867 7.51108 19.1823 7.49756 18.5461 8.08191C18.5458 8.08222 18.5454 8.08254 18.5451 8.08286L13.5826 12.6234C12.8986 13.2487 11.8172 13.2511 11.1363 12.6409L9.01472 10.6969L9.01457 10.6968C8.37898 10.1149 7.37211 10.1207 6.74641 10.7157ZM6.74641 10.7157C6.74648 10.7156 6.74656 10.7155 6.74663 10.7154L7.0907 11.078L6.74618 10.7159C6.74625 10.7158 6.74633 10.7157 6.74641 10.7157ZM1.18683 9.13123L1.1869 9.13112L5.11284 2.85834C5.11289 2.85826 5.11294 2.85819 5.11299 2.85811C6.0177 1.41452 7.7088 0.5 9.53395 0.5H17.4669C19.2922 0.5 20.9822 1.41361 21.8868 2.85822L25.8139 9.13102C26.7287 10.5935 26.7287 12.4065 25.8139 13.869L21.888 20.1417C21.888 20.1417 21.8879 20.1418 21.8879 20.1419C20.9831 21.5855 19.292 22.5 17.4669 22.5H9.53395C7.70752 22.5 6.01762 21.5864 5.11299 20.1419C5.11296 20.1419 5.11294 20.1418 5.11292 20.1418L1.1869 13.8689L1.18683 13.8688C0.271056 12.4064 0.271056 10.5936 1.18683 9.13123Z" stroke="white" stroke-opacity="0.17"/>
</g>
</g>
<defs>
<linearGradient id="paint0_linear_27_371" x1="13.5" y1="0" x2="13.5" y2="23" gradientUnits="userSpaceOnUse">
<stop stop-color="#0A65FE"/>
<stop offset="1" stop-color="#679FFE"/>
</linearGradient>
</defs>
</svg>
