<svg width="33" height="33" viewBox="0 0 33 33" fill="none" xmlns="http://www.w3.org/2000/svg">
<g id="Vector3">
<path id="Vector" d="M20.375 16.5C20.375 18.6364 18.6364 20.375 16.5 20.375C14.3636 20.375 12.625 18.6364 12.625 16.5C12.625 14.3636 14.3636 12.625 16.5 12.625C18.6364 12.625 20.375 14.3636 20.375 16.5ZM32 16.5C32 17.2143 31.4213 17.7917 30.7083 17.7917H29.3521C28.7437 23.8845 23.8845 28.745 17.7917 29.3521V30.7083C17.7917 31.4226 17.213 32 16.5 32C15.787 32 15.2083 31.4226 15.2083 30.7083V29.3521C9.11554 28.7437 4.255 23.8845 3.64792 17.7917H2.29167C1.57867 17.7917 1 17.2143 1 16.5C1 15.7857 1.57867 15.2083 2.29167 15.2083H3.64792C4.255 9.11554 9.11554 4.255 15.2083 3.64792V2.29167C15.2083 1.57738 15.787 1 16.5 1C17.213 1 17.7917 1.57738 17.7917 2.29167V3.64792C23.8845 4.25629 28.745 9.11554 29.3521 15.2083H30.7083C31.4213 15.2083 32 15.7857 32 16.5ZM22.9583 16.5C22.9583 12.9389 20.0611 10.0417 16.5 10.0417C12.9389 10.0417 10.0417 12.9389 10.0417 16.5C10.0417 20.0611 12.9389 22.9583 16.5 22.9583C20.0611 22.9583 22.9583 20.0611 22.9583 16.5Z" fill="url(#paint0_linear_27_373)" stroke="white" stroke-opacity="0.22"/>
</g>
<defs>
<linearGradient id="paint0_linear_27_373" x1="16.5" y1="1" x2="16.5" y2="32" gradientUnits="userSpaceOnUse">
<stop stop-color="#0A65FE"/>
<stop offset="1" stop-color="#679FFE"/>
</linearGradient>
</defs>
</svg>
