<svg width="27" height="25" viewBox="0 0 27 25" fill="none" xmlns="http://www.w3.org/2000/svg">
<g id="Vector2">
<g id="Vector">
<path d="M21.375 4.54545H18V3.40909C18 2.50494 17.6444 1.63783 17.0115 0.9985C16.3786 0.359171 15.5201 0 14.625 0H12.375C11.4799 0 10.6214 0.359171 9.98851 0.9985C9.35558 1.63783 9 2.50494 9 3.40909V4.54545H5.625C4.13371 4.54726 2.704 5.14646 1.6495 6.21161C0.594992 7.27677 0.00178634 8.72091 0 10.2273L0 19.3182C0.00178634 20.8245 0.594992 22.2687 1.6495 23.3338C2.704 24.399 4.13371 24.9982 5.625 25H21.375C22.8663 24.9982 24.296 24.399 25.3505 23.3338C26.405 22.2687 26.9982 20.8245 27 19.3182V10.2273C26.9982 8.72091 26.405 7.27677 25.3505 6.21161C24.296 5.14646 22.8663 4.54726 21.375 4.54545ZM11.25 3.40909C11.25 3.10771 11.3685 2.81867 11.5795 2.60556C11.7905 2.39245 12.0766 2.27273 12.375 2.27273H14.625C14.9234 2.27273 15.2095 2.39245 15.4205 2.60556C15.6315 2.81867 15.75 3.10771 15.75 3.40909V4.54545H11.25V3.40909ZM16.875 15.9091H14.625V18.1818C14.625 18.4832 14.5065 18.7722 14.2955 18.9853C14.0845 19.1985 13.7984 19.3182 13.5 19.3182C13.2016 19.3182 12.9155 19.1985 12.7045 18.9853C12.4935 18.7722 12.375 18.4832 12.375 18.1818V15.9091H10.125C9.82663 15.9091 9.54048 15.7894 9.32951 15.5763C9.11853 15.3631 9 15.0741 9 14.7727C9 14.4713 9.11853 14.1823 9.32951 13.9692C9.54048 13.7561 9.82663 13.6364 10.125 13.6364H12.375V11.3636C12.375 11.0623 12.4935 10.7732 12.7045 10.5601C12.9155 10.347 13.2016 10.2273 13.5 10.2273C13.7984 10.2273 14.0845 10.347 14.2955 10.5601C14.5065 10.7732 14.625 11.0623 14.625 11.3636V13.6364H16.875C17.1734 13.6364 17.4595 13.7561 17.6705 13.9692C17.8815 14.1823 18 14.4713 18 14.7727C18 15.0741 17.8815 15.3631 17.6705 15.5763C17.4595 15.7894 17.1734 15.9091 16.875 15.9091Z" fill="url(#paint0_linear_27_375)"/>
<path d="M17.5 4.54545V5.04545H18L21.3744 5.04545C21.3745 5.04545 21.3746 5.04545 21.3748 5.04545C22.7319 5.0472 24.034 5.59249 24.9952 6.56339C25.9566 7.53454 26.4984 8.8523 26.5 10.2279V19.3176C26.4984 20.6932 25.9566 22.0109 24.9952 22.9821C24.0339 23.9531 22.7317 24.4984 21.3744 24.5H5.62561C4.26834 24.4984 2.9661 23.9531 2.00482 22.9821C1.04345 22.011 0.501708 20.6933 0.5 19.3179V10.2276C0.501708 8.85211 1.04345 7.53447 2.00482 6.56339C2.96601 5.59249 4.26809 5.0472 5.62522 5.04545C5.62535 5.04545 5.62548 5.04545 5.62561 5.04545L9 5.04545H9.5V4.54545V3.40909C9.5 2.63594 9.80411 1.89545 10.3438 1.35027C10.8834 0.805259 11.6141 0.5 12.375 0.5H14.625C15.3859 0.5 16.1166 0.805259 16.6562 1.35027C17.1959 1.89545 17.5 2.63594 17.5 3.40909V4.54545ZM15.75 5.04545H16.25V4.54545V3.40909C16.25 2.97671 16.08 2.56104 15.7758 2.25379C15.4715 1.94636 15.0576 1.77273 14.625 1.77273H12.375C11.9424 1.77273 11.5285 1.94636 11.2242 2.25379C10.92 2.56104 10.75 2.97671 10.75 3.40909V4.54545V5.04545H11.25H15.75ZM15.125 18.1818V16.4091H16.875C17.3076 16.4091 17.7215 16.2355 18.0258 15.928C18.33 15.6208 18.5 15.2051 18.5 14.7727C18.5 14.3403 18.33 13.9247 18.0258 13.6174C17.7215 13.31 17.3076 13.1364 16.875 13.1364H15.125V11.3636C15.125 10.9313 14.955 10.5156 14.6508 10.2083C14.3465 9.90091 13.9326 9.72727 13.5 9.72727C13.0674 9.72727 12.6535 9.90091 12.3492 10.2083C12.045 10.5156 11.875 10.9313 11.875 11.3636V13.1364H10.125C9.69239 13.1364 9.27853 13.31 8.97418 13.6174C8.67 13.9247 8.5 14.3403 8.5 14.7727C8.5 15.2051 8.67 15.6208 8.97418 15.928C9.27853 16.2355 9.69239 16.4091 10.125 16.4091H11.875V18.1818C11.875 18.6142 12.045 19.0299 12.3492 19.3371C12.6535 19.6445 13.0674 19.8182 13.5 19.8182C13.9326 19.8182 14.3465 19.6445 14.6508 19.3371C14.955 19.0299 15.125 18.6142 15.125 18.1818Z" stroke="white" stroke-opacity="0.2"/>
</g>
</g>
<defs>
<linearGradient id="paint0_linear_27_375" x1="13.5" y1="0" x2="13.5" y2="25" gradientUnits="userSpaceOnUse">
<stop stop-color="#0A65FE"/>
<stop offset="1" stop-color="#679FFE"/>
</linearGradient>
</defs>
</svg>
